<?xml version="1.0" encoding="iso-8859-1"?>
<!-- Generator: Adobe Illustrator 19.0.0, SVG Export Plug-In . SVG Version: 6.00 Build 0)  -->
<svg version="1.1" id="Capa_1" xmlns="http://www.w3.org/2000/svg" xmlns:xlink="http://www.w3.org/1999/xlink" x="0px" y="0px"
	 viewBox="0 0 59.999 59.999" style="enable-background:new 0 0 59.999 59.999;" xml:space="preserve">
<g>
	<path d="M56.91,32.999h-1.823c-1.703,0-3.088,1.385-3.088,3.088v1.912h-9.947V31.78c3.646-1.177,5.957-6.052,5.957-12.781
		c0-7.235-2.669-12.333-6.8-12.988c-0.052-0.008-0.104-0.012-0.157-0.012h-40c-0.481,0-0.894,0.343-0.982,0.816l-0.001,0
		c-0.02,0.107-0.472,2.648,1.243,4.714c1.138,1.371,2.92,2.169,5.292,2.395c-0.357,1.59-0.552,3.31-0.552,5.075
		c0,7.289,3.075,13,7,13h0h21v12.967c0,1.672,1.361,3.033,3.033,3.033h1.934c1.308,0,2.415-0.837,2.84-2h10.14v4.912
		c0,1.703,1.385,3.088,3.088,3.088h1.823c1.703,0,3.088-1.385,3.088-3.088V36.088C59.999,34.385,58.613,32.999,56.91,32.999z
		 M40.967,7.999c2.397,0.436,4.788,3.683,5.018,10h-20.52l-3.707-3.707c-0.188-0.188-0.442-0.293-0.707-0.293h-2h-0.348h-3.985
		h-1.07c-0.269-0.44-0.625-0.867-1.015-1.287c0.008,0.007,0.02,0.009,0.028,0.017c-0.052-0.056-0.116-0.113-0.17-0.169
		c-0.156-0.162-0.314-0.323-0.484-0.481c-0.052-0.048-0.111-0.097-0.165-0.146c-1.719-1.547-4.04-2.911-6.075-3.934H40.967z
		 M2.864,10.269C2.381,9.695,2.168,9.051,2.073,8.496c1.508,0.647,3.509,1.605,5.354,2.715c-0.098,0.247-0.188,0.502-0.277,0.76
		C5.147,11.844,3.708,11.273,2.864,10.269z M10.052,17.666c0-1.809,0.378-3.15,0.731-4.01c0.615,0.584,1.091,1.177,1.36,1.762
		c0.164,0.354,0.518,0.582,0.909,0.582h2.876c0.076,0.541,0.124,1.095,0.124,1.667c0,3.374-1.402,6.333-3,6.333
		S10.052,21.04,10.052,17.666z M16.724,29.999c0.028-0.033,0.052-0.074,0.08-0.107c0.193-0.234,0.38-0.483,0.56-0.75
		c0.028-0.041,0.058-0.077,0.085-0.12c0.206-0.314,0.401-0.652,0.587-1.006c0.048-0.092,0.093-0.19,0.14-0.285
		c0.136-0.273,0.265-0.555,0.388-0.849c0.051-0.122,0.101-0.244,0.15-0.369c0.12-0.308,0.232-0.625,0.338-0.951
		c0.033-0.102,0.069-0.201,0.101-0.305c0.131-0.431,0.25-0.875,0.355-1.333c0.02-0.086,0.034-0.175,0.053-0.262
		c0.081-0.376,0.152-0.76,0.214-1.151c0.024-0.151,0.044-0.304,0.065-0.457c0.048-0.353,0.087-0.711,0.118-1.074
		c0.013-0.149,0.028-0.295,0.038-0.446c0.034-0.505,0.056-1.016,0.056-1.535c0-0.001,0-0.003,0-0.004v-2.996h0.586l3.707,3.707
		c0.188,0.188,0.442,0.293,0.707,0.293h20.934c-0.23,6.317-2.621,9.564-5.018,10h-6.916H16.724z M42.051,43.999v-4h9.947v4H42.051z"
		/>
	<circle cx="32.052" cy="25.999" r="1"/>
	<circle cx="28.052" cy="25.999" r="1"/>
	<circle cx="24.052" cy="25.999" r="1"/>
</g>
<g>
</g>
<g>
</g>
<g>
</g>
<g>
</g>
<g>
</g>
<g>
</g>
<g>
</g>
<g>
</g>
<g>
</g>
<g>
</g>
<g>
</g>
<g>
</g>
<g>
</g>
<g>
</g>
<g>
</g>
</svg>
